<!DOCTYPE svg PUBLIC "-//W3C//DTD SVG 1.1//EN" "http://www.w3.org/Graphics/SVG/1.1/DTD/svg11.dtd">
<!-- Uploaded to: SVG Repo, www.svgrepo.com, Transformed by: SVG Repo Mixer Tools -->
<svg fill="#7ed0ec" height="64px" width="64px" version="1.1" id="Capa_1" xmlns="http://www.w3.org/2000/svg" xmlns:xlink="http://www.w3.org/1999/xlink" viewBox="0 0 377.67 377.67" xml:space="preserve" stroke="#7ed0ec">
<g id="SVGRepo_bgCarrier" stroke-width="0"/>
<g id="SVGRepo_tracerCarrier" stroke-linecap="round" stroke-linejoin="round" stroke="#CCCCCC" stroke-width="0.755338"/>
<g id="SVGRepo_iconCarrier"> <path d="M277.394,0H100.275C44.983,0,0,44.984,0,100.276v177.118c0,55.292,44.983,100.275,100.275,100.275h177.119 c55.292,0,100.275-44.983,100.275-100.275V100.276C377.669,44.984,332.686,0,277.394,0z M291.661,256.306 c9.763,9.763,9.763,25.592,0,35.355c-4.881,4.881-11.28,7.322-17.678,7.322c-6.398,0-12.796-2.44-17.678-7.322l-67.471-67.471 l-67.471,67.471c-4.882,4.881-11.28,7.322-17.678,7.322s-12.796-2.441-17.678-7.322c-9.763-9.763-9.763-25.592,0-35.355 l67.471-67.471l-67.471-67.471c-9.763-9.763-9.763-25.592,0-35.355c9.763-9.763,25.592-9.762,35.355,0l67.471,67.471l67.471-67.471 c9.764-9.763,25.592-9.763,35.355,0c9.763,9.763,9.763,25.592,0,35.355l-67.471,67.471L291.661,256.306z"/> </g>
</svg>